<svg width="38" height="51" viewBox="0 0 38 51" fill="none" xmlns="http://www.w3.org/2000/svg">
<g clip-path="url(#clip0_23_161)">
<path d="M1 17.9289C1 9.94854 1 5.95836 2.97703 3.47918C4.95406 1 8.13604 1 14.5 1H23.5C29.864 1 33.0459 1 35.023 3.47918C37 5.95836 37 9.94854 37 17.9289V37.1929C37 44.7637 37 48.5492 35.1003 49.707C33.2007 50.8648 30.827 48.5261 26.0797 43.8486L24.5604 42.3517C21.8911 39.7216 20.5564 38.4066 19 38.4066C17.4436 38.4066 16.1089 39.7216 13.4396 42.3517L11.9203 43.8486C7.17298 48.5261 4.79932 50.8648 2.89966 49.707C1 48.5492 1 44.7637 1 37.1929V17.9289Z" fill="#2C3440" stroke="#222222" stroke-width="2"/>
<path d="M28 18H10V23H28V18Z" fill="#99AABB"/>
<path d="M21 11H16V29H21V11Z" fill="#99AABB"/>
</g>
<defs>
<clipPath id="clip0_23_161">
<rect width="38" height="51" fill="white"/>
</clipPath>
</defs>
</svg>
