<svg width="134" height="50" viewBox="0 0 134 50" fill="none" xmlns="http://www.w3.org/2000/svg">
<rect width="134" height="50" rx="20" fill="#073865"/>
<path d="M35.8 26.4H29.15L28 33H23.475L26.65 15H39.2L38.5 18.9H30.45L29.825 22.5H36.475L35.8 26.4ZM43.8641 29.8C44.2474 29.8 44.5891 29.7167 44.8891 29.55L44.7641 32.375C43.9807 33.025 43.0891 33.35 42.0891 33.35C40.5724 33.35 39.5891 33 39.1391 32.3C38.8391 31.8333 38.6891 31.3417 38.6891 30.825C38.6891 30.2917 38.7224 29.825 38.7891 29.425L40.2891 20.975H44.5391L43.1391 28.85C43.1224 28.95 43.1141 29.0417 43.1141 29.125C43.1141 29.575 43.3641 29.8 43.8641 29.8ZM40.7891 16.9C40.7891 15.8333 41.0224 15.0583 41.4891 14.575C41.9724 14.075 42.7141 13.825 43.7141 13.825C45.1141 13.825 45.8141 14.4417 45.8141 15.675C45.8141 16.725 45.5724 17.4917 45.0891 17.975C44.6224 18.4583 43.8807 18.7 42.8641 18.7C41.4807 18.7 40.7891 18.1 40.7891 16.9ZM51.076 29.15C51.076 29.5833 51.2926 29.8 51.726 29.8C52.176 29.8 52.551 29.7167 52.851 29.55L52.726 32.375C51.926 33.025 51.026 33.35 50.026 33.35C48.5093 33.35 47.526 33 47.076 32.3C46.7926 31.85 46.651 31.3583 46.651 30.825C46.651 30.2917 46.6843 29.825 46.751 29.425L49.476 14.025H53.726L51.101 28.85C51.0843 28.95 51.076 29.05 51.076 29.15ZM75.1094 29.8C75.4927 29.8 75.8344 29.7167 76.1344 29.55L76.0094 32.375C75.226 33.025 74.3344 33.35 73.3344 33.35C71.0677 33.35 69.9344 32.4 69.9344 30.5C69.9344 30.1667 69.9677 29.8083 70.0344 29.425L70.5594 26.35C70.6094 26.05 70.6344 25.75 70.6344 25.45C70.6344 24.65 70.1927 24.25 69.3094 24.25C68.4427 24.25 67.7594 24.5917 67.2594 25.275L65.9094 33H61.6594L62.8344 26.35C62.8844 26.05 62.9094 25.75 62.9094 25.45C62.9094 24.65 62.4594 24.25 61.5594 24.25C60.8427 24.25 60.226 24.525 59.7094 25.075L58.3094 33H54.0594L56.1844 20.975H60.1344L59.8594 22.475C60.8594 21.2417 62.126 20.625 63.6594 20.625C65.826 20.625 67.0594 21.3417 67.3594 22.775C68.3594 21.3417 69.6927 20.625 71.3594 20.625C73.0427 20.625 74.1344 21 74.6344 21.75C74.9677 22.2667 75.1344 22.8333 75.1344 23.45C75.1344 24.0667 75.0927 24.625 75.0094 25.125L74.3844 28.85C74.3677 28.95 74.3594 29.0417 74.3594 29.125C74.3594 29.575 74.6094 29.8 75.1094 29.8ZM87.7027 15C89.8861 15 91.4444 15.55 92.3777 16.65C93.0611 17.4833 93.4027 18.525 93.4027 19.775C93.4027 20.225 93.3611 20.7 93.2777 21.2L92.3027 26.775C91.9694 28.6583 91.1527 30.1667 89.8527 31.3C88.5527 32.4333 86.8694 33 84.8027 33H77.5277L80.7027 15H87.7027ZM86.1277 18.9H84.5027L82.7277 29.1H85.1027C85.8861 29.1 86.4944 28.8917 86.9277 28.475C87.3777 28.0417 87.6861 27.3417 87.8527 26.375L88.5777 22.275C88.6444 21.9083 88.6777 21.575 88.6777 21.275C88.6777 19.6917 87.8277 18.9 86.1277 18.9ZM104.676 15C106.576 15 107.926 15.4167 108.726 16.25C109.326 16.8833 109.626 17.6833 109.626 18.65C109.626 18.9833 109.593 19.3333 109.526 19.7L109.301 20.9C109.118 21.85 108.76 22.5917 108.226 23.125C107.71 23.6583 107.251 23.925 106.851 23.925L106.826 24.125C107.293 24.125 107.768 24.3833 108.251 24.9C108.735 25.4167 108.976 26.025 108.976 26.725C108.976 27.0083 108.943 27.3083 108.876 27.625L108.726 28.4C108.46 29.8333 107.818 30.9583 106.801 31.775C105.801 32.5917 104.401 33 102.601 33H94.2514L97.4264 15H104.676ZM102.426 25.65H100.051L99.4514 29.1H101.826C101.86 29.1 101.893 29.1 101.926 29.1C102.693 29.1 103.301 28.925 103.751 28.575C104.201 28.2083 104.426 27.7667 104.426 27.25C104.426 26.1833 103.76 25.65 102.426 25.65ZM103.101 18.9H101.226L100.576 22.625H102.426C104.026 22.625 104.826 21.925 104.826 20.525C104.826 20.0417 104.676 19.65 104.376 19.35C104.093 19.05 103.668 18.9 103.101 18.9Z" fill="#B7C9DB"/>
</svg>
